HIERARCHY
ROOT mixamorig:Hips
{
	OFFSET 0.000000 201.639420 0.000000
	CHANNELS 6 Xposition Yposition Zposition Xrotation Yrotation Zrotation
	JOINT mixamorig:Spine
	{
		OFFSET 0.006200 19.524994 -2.481800
		CHANNELS 3 Xrotation Yrotation Zrotation
		JOINT mixamorig:Spine1
		{
			OFFSET -0.000900 22.835007 -2.825400
			CHANNELS 3 Xrotation Yrotation Zrotation
			JOINT mixamorig:Spine2
			{
				OFFSET -0.020600 26.552490 -3.193300
				CHANNELS 3 Xrotation Yrotation Zrotation
				JOINT mixamorig:Neck
				{
					OFFSET -0.060000 30.701813 1.352200
					CHANNELS 3 Xrotation Yrotation Zrotation
					JOINT mixamorig:Head
					{
						OFFSET -0.087200 22.547607 3.670900
						CHANNELS 3 Xrotation Yrotation Zrotation
						JOINT mixamorig:HeadTop_End
						{
							OFFSET -0.830600 40.355194 7.893500
							CHANNELS 3 Xrotation Yrotation Zrotation
							End Site
							{
								OFFSET 0.000000 30.592346 0.000000
							}
						}
						JOINT mixamorig:RightEye
						{
							OFFSET -6.302100 18.118591 16.197100
							CHANNELS 3 Xrotation Yrotation Zrotation
							End Site
							{
								OFFSET 0.000000 30.592346 0.000000
							}
						}
						JOINT mixamorig:LeftEye
						{
							OFFSET 6.741500 18.382690 16.401899
							CHANNELS 3 Xrotation Yrotation Zrotation
							End Site
							{
								OFFSET 0.000000 30.592346 0.000000
							}
						}
					}
				}
				JOINT mixamorig:LeftShoulder
				{
					OFFSET 11.924900 18.230499 1.425400
					CHANNELS 3 Xrotation Yrotation Zrotation
					JOINT mixamorig:LeftArm
					{
						OFFSET 25.435989 -0.697632 -5.229300
						CHANNELS 3 Xrotation Yrotation Zrotation
						JOINT mixamorig:LeftForeArm
						{
							OFFSET 54.684776 0.000000 0.000000
							CHANNELS 3 Xrotation Yrotation Zrotation
							JOINT mixamorig:LeftHand
							{
								OFFSET 55.098175 0.000000 0.000000
								CHANNELS 3 Xrotation Yrotation Zrotation
								JOINT mixamorig:LeftHandMiddle1
								{
									OFFSET 23.369751 0.000000 0.000000
									CHANNELS 3 Xrotation Yrotation Zrotation
									JOINT mixamorig:LeftHandMiddle2
									{
										OFFSET 6.378677 0.000000 0.000000
										CHANNELS 3 Xrotation Yrotation Zrotation
										JOINT mixamorig:LeftHandMiddle3
										{
											OFFSET 6.148331 0.000000 0.000000
											CHANNELS 3 Xrotation Yrotation Zrotation
											JOINT mixamorig:LeftHandMiddle4
											{
												OFFSET 6.582504 0.000000 0.000000
												CHANNELS 3 Xrotation Yrotation Zrotation
												End Site
												{
													OFFSET -1.168900 6.395691 1.028606
												}
											}
										}
									}
								}
								JOINT mixamorig:LeftHandThumb1
								{
									OFFSET 7.235672 -3.848206 5.434273
									CHANNELS 3 Xrotation Yrotation Zrotation
									JOINT mixamorig:LeftHandThumb2
									{
										OFFSET 6.568451 -3.792297 3.792300
										CHANNELS 3 Xrotation Yrotation Zrotation
										JOINT mixamorig:LeftHandThumb3
										{
											OFFSET 6.063080 -3.500519 3.500518
											CHANNELS 3 Xrotation Yrotation Zrotation
											JOINT mixamorig:LeftHandThumb4
											{
												OFFSET 4.793182 -2.767334 2.767349
												CHANNELS 3 Xrotation Yrotation Zrotation
												End Site
												{
													OFFSET 0.101639 6.054260 1.275483
												}
											}
										}
									}
								}
								JOINT mixamorig:LeftHandIndex1
								{
									OFFSET 23.101074 -0.309540 4.992809
									CHANNELS 3 Xrotation Yrotation Zrotation
									JOINT mixamorig:LeftHandIndex2
									{
										OFFSET 6.226883 0.000000 0.000000
										CHANNELS 3 Xrotation Yrotation Zrotation
										JOINT mixamorig:LeftHandIndex3
										{
											OFFSET 6.094330 0.000000 0.000000
											CHANNELS 3 Xrotation Yrotation Zrotation
											JOINT mixamorig:LeftHandIndex4
											{
												OFFSET 5.482605 0.000000 0.000000
												CHANNELS 3 Xrotation Yrotation Zrotation
												End Site
												{
													OFFSET -1.427902 5.233032 0.797164
												}
											}
										}
									}
								}
								JOINT mixamorig:LeftHandRing1
								{
									OFFSET 22.299240 0.021149 -3.964172
									CHANNELS 3 Xrotation Yrotation Zrotation
									JOINT mixamorig:LeftHandRing2
									{
										OFFSET 6.321869 0.000000 0.000000
										CHANNELS 3 Xrotation Yrotation Zrotation
										JOINT mixamorig:LeftHandRing3
										{
											OFFSET 5.899796 0.000000 0.000000
											CHANNELS 3 Xrotation Yrotation Zrotation
											JOINT mixamorig:LeftHandRing4
											{
												OFFSET 6.517899 0.000000 0.000000
												CHANNELS 3 Xrotation Yrotation Zrotation
												End Site
												{
													OFFSET -1.637299 6.232208 0.980890
												}
											}
										}
									}
								}
								JOINT mixamorig:LeftHandPinky1
								{
									OFFSET 20.463791 -0.302338 -8.562233
									CHANNELS 3 Xrotation Yrotation Zrotation
									JOINT mixamorig:LeftHandPinky2
									{
										OFFSET 6.908646 0.000000 0.000000
										CHANNELS 3 Xrotation Yrotation Zrotation
										JOINT mixamorig:LeftHandPinky3
										{
											OFFSET 4.622849 0.000000 0.000000
											CHANNELS 3 Xrotation Yrotation Zrotation
											JOINT mixamorig:LeftHandPinky4
											{
												OFFSET 5.216080 0.000000 0.000000
												CHANNELS 3 Xrotation Yrotation Zrotation
												End Site
												{
													OFFSET -0.606308 5.116241 0.814926
												}
											}
										}
									}
								}
							}
						}
					}
				}
				JOINT mixamorig:RightShoulder
				{
					OFFSET -12.001300 18.284088 1.348900
					CHANNELS 3 Xrotation Yrotation Zrotation
					JOINT mixamorig:RightArm
					{
						OFFSET -25.308500 -0.751312 -5.164599
						CHANNELS 3 Xrotation Yrotation Zrotation
						JOINT mixamorig:RightForeArm
						{
							OFFSET -54.684429 0.000000 0.000000
							CHANNELS 3 Xrotation Yrotation Zrotation
							JOINT mixamorig:RightHand
							{
								OFFSET -55.150291 0.000000 0.000000
								CHANNELS 3 Xrotation Yrotation Zrotation
								JOINT mixamorig:RightHandMiddle1
								{
									OFFSET -23.317566 0.000000 0.000000
									CHANNELS 3 Xrotation Yrotation Zrotation
									JOINT mixamorig:RightHandMiddle2
									{
										OFFSET -6.378403 0.000000 0.000000
										CHANNELS 3 Xrotation Yrotation Zrotation
										JOINT mixamorig:RightHandMiddle3
										{
											OFFSET -6.148193 0.000000 0.000000
											CHANNELS 3 Xrotation Yrotation Zrotation
											JOINT mixamorig:RightHandMiddle4
											{
												OFFSET -6.583389 0.000000 0.000000
												CHANNELS 3 Xrotation Yrotation Zrotation
												End Site
												{
													OFFSET 1.171692 6.395905 1.029786
												}
											}
										}
									}
								}
								JOINT mixamorig:RightHandThumb1
								{
									OFFSET -7.190521 -3.860474 5.435846
									CHANNELS 3 Xrotation Yrotation Zrotation
									JOINT mixamorig:RightHandThumb2
									{
										OFFSET -6.567429 -3.791718 3.791708
										CHANNELS 3 Xrotation Yrotation Zrotation
										JOINT mixamorig:RightHandThumb3
										{
											OFFSET -6.062469 -3.500153 3.500166
											CHANNELS 3 Xrotation Yrotation Zrotation
											JOINT mixamorig:RightHandThumb4
											{
												OFFSET -4.792618 -2.767029 2.767022
												CHANNELS 3 Xrotation Yrotation Zrotation
												End Site
												{
													OFFSET -0.100327 6.053253 1.276754
												}
											}
										}
									}
								}
								JOINT mixamorig:RightHandIndex1
								{
									OFFSET -23.048981 -0.310791 4.992554
									CHANNELS 3 Xrotation Yrotation Zrotation
									JOINT mixamorig:RightHandIndex2
									{
										OFFSET -6.227539 0.000000 0.000000
										CHANNELS 3 Xrotation Yrotation Zrotation
										JOINT mixamorig:RightHandIndex3
										{
											OFFSET -6.095047 0.000000 0.000000
											CHANNELS 3 Xrotation Yrotation Zrotation
											JOINT mixamorig:RightHandIndex4
											{
												OFFSET -5.484772 0.000000 0.000000
												CHANNELS 3 Xrotation Yrotation Zrotation
												End Site
												{
													OFFSET 1.420593 5.237305 0.797056
												}
											}
										}
									}
								}
								JOINT mixamorig:RightHandRing1
								{
									OFFSET -22.246323 0.020569 -3.963762
									CHANNELS 3 Xrotation Yrotation Zrotation
									JOINT mixamorig:RightHandRing2
									{
										OFFSET -6.322128 0.000000 0.000000
										CHANNELS 3 Xrotation Yrotation Zrotation
										JOINT mixamorig:RightHandRing3
										{
											OFFSET -5.900024 0.000000 0.000000
											CHANNELS 3 Xrotation Yrotation Zrotation
											JOINT mixamorig:RightHandRing4
											{
												OFFSET -6.518356 0.000000 0.000000
												CHANNELS 3 Xrotation Yrotation Zrotation
												End Site
												{
													OFFSET 1.636398 6.232697 0.982186
												}
											}
										}
									}
								}
								JOINT mixamorig:RightHandPinky1
								{
									OFFSET -20.411011 -0.303314 -8.561701
									CHANNELS 3 Xrotation Yrotation Zrotation
									JOINT mixamorig:RightHandPinky2
									{
										OFFSET -6.907349 0.000000 0.000000
										CHANNELS 3 Xrotation Yrotation Zrotation
										JOINT mixamorig:RightHandPinky3
										{
											OFFSET -4.623840 0.000000 0.000000
											CHANNELS 3 Xrotation Yrotation Zrotation
											JOINT mixamorig:RightHandPinky4
											{
												OFFSET -5.218353 0.000000 0.000000
												CHANNELS 3 Xrotation Yrotation Zrotation
												End Site
												{
													OFFSET 0.602097 5.118835 0.816273
												}
											}
										}
									}
								}
							}
						}
					}
				}
			}
		}
	}
	JOINT mixamorig:LeftUpLeg
	{
		OFFSET 18.168400 -13.561905 -0.039000
		CHANNELS 3 Xrotation Yrotation Zrotation
		JOINT mixamorig:LeftLeg
		{
			OFFSET 0.577358 -80.825211 -3.695000
			CHANNELS 3 Xrotation Yrotation Zrotation
			JOINT mixamorig:LeftFoot
			{
				OFFSET -0.577356 -83.370262 -6.520700
				CHANNELS 3 Xrotation Yrotation Zrotation
				JOINT mixamorig:LeftToeBase
				{
					OFFSET 0.750401 -20.798306 25.135401
					CHANNELS 3 Xrotation Yrotation Zrotation
					JOINT mixamorig:LeftToe_End
					{
						OFFSET -0.000500 0.001200 19.917799
						CHANNELS 3 Xrotation Yrotation Zrotation
						End Site
						{
							OFFSET 0.000000 19.917805 0.000000
						}
					}
				}
			}
		}
	}
	JOINT mixamorig:RightUpLeg
	{
		OFFSET -18.162500 -13.585098 -0.041000
		CHANNELS 3 Xrotation Yrotation Zrotation
		JOINT mixamorig:RightLeg
		{
			OFFSET -0.595024 -80.945297 -3.631900
			CHANNELS 3 Xrotation Yrotation Zrotation
			JOINT mixamorig:RightFoot
			{
				OFFSET 0.595024 -83.218193 -6.561200
				CHANNELS 3 Xrotation Yrotation Zrotation
				JOINT mixamorig:RightToeBase
				{
					OFFSET -0.753601 -20.807106 25.115000
					CHANNELS 3 Xrotation Yrotation Zrotation
					JOINT mixamorig:RightToe_End
					{
						OFFSET 0.000299 0.001700 19.918200
						CHANNELS 3 Xrotation Yrotation Zrotation
						End Site
						{
							OFFSET 0.000000 19.918203 0.000000
						}
					}
				}
			}
		}
	}
}
MOTION
Frames: 4
Frame Time: 0.033333
4.373375 84.572693 78.458755 29.358919 -12.330385 9.432210 6.522914 -0.038552 1.104108 11.773043 -0.197016 1.646011 11.768999 -0.272460 1.677235 -11.017340 0.931606 3.866736 -18.334159 12.194352 -7.460070 0.000001 0.000000 -0.000000 0.000001 0.000000 -0.000000 0.000001 0.000000 -0.000000 2.574058 -32.669430 -2.767096 -19.966409 -15.271029 13.640292 0.000028 -39.951211 0.000027 -3.159624 -24.322363 8.251676 0.172342 3.482112 -11.020311 2.251923 4.616184 -51.990464 0.645476 2.675149 -27.126006 -0.000002 0.000001 0.000001 8.190314 26.718071 -11.526441 11.595234 14.435081 40.279077 29.278525 -36.129911 64.641347 -0.000001 -0.000002 -0.000001 0.115996 3.139471 -7.628222 1.001887 3.278132 -33.981315 0.136229 1.257300 -12.366945 0.000000 -0.000000 -0.000001 0.261658 3.869344 -14.904233 2.721563 4.946264 -57.620254 0.835466 3.016952 -30.951313 -0.000003 0.000000 0.000001 0.464135 4.487635 -21.269463 2.039265 4.442314 -49.297976 1.945637 4.360292 -48.078002 0.000001 0.000000 0.000001 -0.646376 24.956003 18.633883 -2.874910 27.029635 19.900748 -0.000012 34.348871 0.000016 -12.209969 -11.056905 38.361590 -0.083061 -0.477425 3.909482 0.803922 -2.617641 34.140086 0.504911 -2.110864 26.901445 0.000002 -0.000001 -0.000001 -17.516703 2.279318 -3.623270 13.331598 -20.222896 -10.689800 2.797739 0.549786 -25.827459 0.000001 -0.000002 -0.000001 0.348928 -2.870765 10.323121 0.511755 -2.124296 27.086640 0.161492 -1.217015 15.116691 -0.000000 -0.000003 -0.000001 -0.329508 -0.488382 9.868585 0.324318 -1.709164 21.487270 0.291474 -1.623268 20.357599 -0.000001 -0.000001 -0.000000 -4.216832 3.145850 3.866489 0.532634 -2.164604 27.644718 0.125733 -1.075964 13.329550 -0.000002 -0.000001 0.000001 -144.934005 -0.361416 21.161734 124.905104 -7.624903 0.749339 -8.125237 -1.546655 7.187135 -3.927335 0.000001 -0.000003 -0.000000 0.000000 -0.000000 -146.288978 -6.224352 -0.062740 120.159720 -4.388157 -2.007688 -2.910278 -0.636997 -5.603286 -4.368839 0.000005 0.000003 -0.000000 0.000000 -0.000000 
4.130569 91.110184 79.452499 30.796401 -10.388865 8.440293 5.911431 0.060401 0.878194 10.893436 0.065505 1.369596 10.892451 0.019605 1.384715 -11.893982 0.547245 3.976469 -18.832254 10.610894 -7.202434 0.000002 0.000000 0.000000 0.000002 0.000000 0.000000 0.000002 0.000000 0.000000 2.374883 -31.540277 -3.283839 -18.089792 -15.958255 11.717227 0.000008 -46.683797 0.000011 -0.839861 -24.571507 8.564641 0.158013 3.405942 -10.263029 2.145500 4.531245 -50.655869 0.639993 2.664422 -27.008120 -0.000000 0.000000 0.000000 8.190321 26.718073 -11.526456 11.595225 14.435093 40.279104 29.278497 -36.129908 64.641347 0.000001 -0.000004 -0.000001 0.114866 3.131011 -7.544833 0.953991 3.206029 -33.134388 0.150327 1.319993 -12.994314 -0.000001 -0.000001 0.000002 0.239794 3.784815 -14.050775 2.560772 4.840926 -55.735652 0.832975 3.012775 -30.903652 0.000001 0.000000 -0.000002 0.422538 4.377837 -20.120889 1.909577 4.327717 -47.602119 1.861684 4.283637 -46.964049 -0.000001 0.000000 0.000005 -0.328755 24.362931 17.718645 -7.490411 28.735716 21.000697 0.000002 34.418826 -0.000012 -11.785736 -8.156380 32.259526 -0.096299 -0.497254 4.302764 0.805773 -2.620372 34.180855 0.505729 -2.112481 26.923643 0.000000 -0.000001 -0.000001 -17.438330 2.057062 -3.700922 13.336890 -20.228719 -10.628544 2.799721 0.476226 -25.769836 0.000001 0.000000 0.000000 0.351369 -2.892283 10.642976 0.512946 -2.126601 27.118742 0.161652 -1.217638 15.124508 0.000001 0.000001 -0.000002 -0.347696 -0.518008 10.370614 0.324858 -1.710533 21.505421 0.291812 -1.624180 20.369610 0.000000 0.000004 0.000001 -4.229855 3.075076 4.426077 0.533861 -2.166936 27.677060 0.125800 -1.076254 13.333193 -0.000001 -0.000001 -0.000000 -140.888935 0.495868 18.893890 121.120537 -8.038308 0.034491 -10.052331 -1.653383 6.551050 -3.743571 0.000002 0.000001 0.000000 0.000000 -0.000000 -142.407983 -4.547914 -0.874208 117.501179 -4.703515 -1.752567 -5.856873 -0.487752 -4.332484 -4.022849 -0.000000 0.000000 0.000000 0.000001 0.000000 
3.842770 98.221558 80.990189 32.091364 -8.787486 7.526136 5.195225 0.063498 0.679301 9.771523 0.126083 1.162411 9.771350 0.111175 1.166992 -12.345150 0.291936 4.038051 -18.756680 9.508186 -7.073212 -0.000001 -0.000001 -0.000000 -0.000001 -0.000001 -0.000000 -0.000001 -0.000001 -0.000000 2.193513 -30.382789 -3.753431 -15.204296 -15.860049 8.384916 0.000011 -52.025315 0.000012 0.716295 -24.140672 9.464559 0.144737 3.329915 -9.509295 2.038418 4.441593 -49.287069 0.634684 2.654006 -26.893979 0.000002 -0.000001 0.000000 8.190320 26.718068 -11.526466 11.595235 14.435096 40.279094 29.278525 -36.129904 64.641361 0.000001 0.000001 -0.000000 0.114078 3.125078 -7.486289 0.907998 3.134542 -32.302652 0.166419 1.387805 -13.674717 0.000001 0.000001 0.000001 0.219013 3.699306 -13.190748 2.399945 4.727775 -53.807786 0.830197 3.008141 -30.850721 -0.000001 0.000000 -0.000000 0.382964 4.266710 -18.967227 1.778626 4.204772 -45.841884 1.774042 4.200299 -45.778889 0.000001 0.000001 0.000003 -0.088117 24.256809 16.929657 -10.962754 29.721309 22.842700 -0.000009 33.885781 0.000027 -11.960075 -5.709940 26.031973 -0.109518 -0.516799 4.695954 0.807698 -2.623199 34.222680 0.506570 -2.114127 26.946445 0.000001 0.000001 0.000000 -17.358509 1.829702 -3.776850 13.342320 -20.234698 -10.565657 2.801940 0.400640 -25.710610 -0.000001 0.000000 0.000000 0.353610 -2.913006 10.955147 0.514165 -2.128986 27.151692 0.161831 -1.218274 15.132545 -0.000003 0.000001 -0.000001 -0.366034 -0.548531 10.881515 0.325418 -1.711932 21.524057 0.292162 -1.625116 20.381954 0.000000 -0.000002 0.000004 -4.241276 3.001240 5.000357 0.535116 -2.169335 27.710264 0.125869 -1.076534 13.336939 0.000001 0.000001 0.000001 -136.326041 1.051975 17.141603 117.036931 -8.622668 -0.830726 -11.977532 -1.773474 6.253258 -3.530578 -0.000000 -0.000002 0.000000 0.000000 0.000000 -138.000065 -3.342692 -1.577762 114.478943 -5.185739 -1.416359 -8.703458 -0.347396 -3.872282 -3.654172 -0.000000 -0.000001 0.000000 -0.000000 -0.000000 
3.452587 105.826187 82.937317 32.816665 -7.393115 6.513437 4.536447 0.048203 0.500293 8.690151 0.143463 1.003716 8.690159 0.157009 1.000714 -12.422853 0.014578 4.236695 -18.383357 8.503375 -6.926761 0.000001 0.000000 -0.000000 0.000001 0.000000 -0.000000 0.000001 0.000000 -0.000000 2.064938 -29.735659 -4.123531 -11.451042 -15.390026 4.233169 -0.000006 -55.279262 -0.000013 1.071763 -23.760818 10.208146 0.132665 3.254904 -8.767186 1.931653 4.347726 -47.894195 0.629477 2.643741 -26.781341 0.000004 0.000000 0.000000 8.190317 26.718042 -11.526459 11.595222 14.435127 40.279091 29.278514 -36.129894 64.641347 0.000002 0.000000 -0.000000 0.113610 3.121481 -7.450920 0.864017 3.064000 -31.489488 0.184414 1.459779 -14.399140 -0.000001 0.000002 -0.000002 0.199606 3.613754 -12.333827 2.240966 4.607621 -51.854216 0.826939 3.002707 -30.788765 -0.000002 -0.000001 0.000002 0.345831 4.155293 -17.818838 1.648107 4.074306 -44.033851 1.683853 4.110864 -44.534831 -0.000005 0.000000 -0.000001 0.064050 24.077878 16.696158 -13.445061 29.945305 24.899921 0.000017 32.982642 -0.000024 -12.910877 -3.280714 20.407355 -0.122719 -0.536049 5.088891 0.809660 -2.626077 34.265533 0.507427 -2.115818 26.969834 -0.000001 -0.000001 -0.000003 -17.277361 1.597488 -3.850960 13.347894 -20.240834 -10.501155 2.804371 0.323114 -25.649940 -0.000002 -0.000001 0.000000 0.355638 -2.932917 11.259740 0.515424 -2.131438 27.185463 0.162001 -1.218907 15.140789 0.000004 0.000003 0.000002 -0.384490 -0.579880 11.400859 0.325990 -1.713390 21.543115 0.292526 -1.626086 20.394646 0.000003 -0.000000 0.000000 -4.250979 2.924549 5.588607 0.536406 -2.171785 27.744353 0.125942 -1.076839 13.340777 -0.000003 0.000001 0.000002 -131.010186 1.433259 15.700575 112.582636 -9.322255 -1.740139 -13.691706 -1.899456 6.188490 -3.425107 0.000005 0.000001 0.000000 -0.000000 -0.000000 -132.676042 -2.458887 -2.335606 111.025367 -5.757143 -1.058459 -11.387400 -0.229770 -3.329997 -3.451171 -0.000000 0.000000 0.000000 0.000001 0.000000 
